<svg xmlns="http://www.w3.org/2000/svg" fill="none" viewBox="0 0 26 26"><g filter="url(#a)" transform="translate(-8 -5)"><g transform="translate(3 1.9) scale(.61905)"><circle cx="29" cy="26" fill="#3c994e" r="21"/><g clip-path="url(#b)"><path fill-rule="evenodd" d="M16 26a13 13 0 1 1 26 0 13 13 0 0 1-26 0zm12.3 5.6 3.7-4.7 3.2-4c.3-.4.2-1-.1-1.2a.9.9 0 0 0-1.3.1L28 29.1l-3.8-3.2a.9.9 0 0 0-1.1 1.3z" fill="#f5f3f2"/></g></g></g><defs><clipPath id="b"><path fill="#fff" transform="translate(16 13)" d="M0 0h26v26H0Z"/></clipPath><filter id="a" x="0" y="0" width="60" height="60" filterUnits="userSpaceOnUse" color-interpolation-filters="sRGB"><feFlood flood-opacity="0" result="A"/><feColorMatrix in="SourceAlpha" values="0 0 0 0 0 0 0 0 0 0 0 0 0 0 0 0 0 0 127 0" result="B"/><feOffset dx="1" dy="4"/><feGaussianBlur stdDeviation="4.5"/><feComposite in2="B" operator="out"/><feColorMatrix values="0 0 0 0 0.258333 0 0 0 0 0.258333 0 0 0 0 0.258333 0 0 0 0.24 0"/><feBlend in2="A"/><feBlend in="SourceGraphic"/></filter></defs></svg>