<svg xmlns="http://www.w3.org/2000/svg" viewBox="0 0 22 22"><path d="M6.2,0l.6.2A1.4,1.4,0,0,1,7,.8V2.2h8.3V.8a1.4,1.4,0,0,1,.2-.6L16,0l.6.2a1.4,1.4,0,0,1,.2.6V2.2h3a2.1,2.1,0,0,1,1.6.7A2,2,0,0,1,22,4.4V19.8a2.5,2.5,0,0,1-.6,1.6,2.5,2.5,0,0,1-1.6.6H2.2a2.5,2.5,0,0,1-1.6-.6A2.5,2.5,0,0,1,0,19.8V4.4A2,2,0,0,1,.6,2.9a2.1,2.1,0,0,1,1.6-.7H5.5V.8A1.4,1.4,0,0,1,5.7.2ZM1.5,8.5V19.8c0,.1.1.2.1.3a.3.3,0,0,1,.1.2H20.3a.3.3,0,0,1,.1-.2c0-.1.1-.2.1-.3V8.5Zm5.8,7.6v1.8H5.5V16.1Zm4.6,0v1.8H10.1V16.1Zm4.6,0v1.8H14.7V16.1ZM7.3,11.7v1.8H5.5V11.7Zm4.6,0v1.8H10.1V11.7Zm4.6,0v1.8H14.7V11.7Zm-11-8H1.7c0,.1-.1.2-.1.3a.3.3,0,0,0-.1.2V7h19V4.4a.3.3,0,0,0-.1-.2c0-.1-.1-.2-.1-.3H16.8V4.8a.8.8,0,0,1-.2.5c-.2.2-.3.2-.6.2s-.4,0-.5-.2a.8.8,0,0,1-.2-.5V3.7H7V4.8a.8.8,0,0,1-.2.5l-.6.2-.5-.2a.8.8,0,0,1-.2-.5Z" style="fill:#e3dfde"/></svg>