<svg id="Layer_1" data-name="Layer 1" xmlns="http://www.w3.org/2000/svg" viewBox="0 0 63.6 63.2"><defs><style>.cls-1{fill:none;stroke:#e3dfde;stroke-linecap:round;stroke-width:3px;}</style></defs><path class="cls-1" d="M25.4,28.6c-3.1,1.5-4.1,4.9-3.2,8.3m3.2-8.3a5.1,5.1,0,0,1,4.5.6m-4.5-.6c1-10.8,4-31.3,9-26.3s-.9,20-4.5,26.9m-4.5-.6c-1-8.5-4.9-25.4-12.6-24.3-9.6,1.4,6,24.9,6.7,24.9S3.4,12.6,1.6,24.7C.1,34.4,14.7,36.9,22.2,36.9m0,0C13.6,38.4-2,43.2,4.6,50.4s17.8-3.2,22.5-9.2m-4.9-4.3c.6,2.1,2.7,3.6,4.9,4.3m7.3-8.7s2.5,5.7,0,8-4.5,1.5-7.3.7m7.3-8.7c7.3-4.7,21.1-15.9,17.8-22.7S36,19.9,29.9,29.2m4.5,3.3a20.9,20.9,0,0,0-4.5-3.3" transform="translate(0 0)"/><path class="cls-1" d="M26.8,41.2c-3,6.3-7.1,19.1,1.2,20.4s6.4-13.1,4.5-20.4c3.9,7,12.5,19.9,16.8,15.1s-7.6-13.6-14-17.4c8.9,3.5,26.8,8.5,26.8,0s-17.9-7.8-26.8-6.4" transform="translate(0 0)"/></svg>