<svg width="100%" viewBox="0 0 43 43" fill="none" xmlns="http://www.w3.org/2000/svg">
<path d="M20.1058 21.7792L22.9495 20.9462M22.9495 20.9462C22.9495 20.9462 24.5545 16.5176 26.9933 15.4216C29.712 14.1997 32.2866 16.6278 34.5274 16.6428C36.7682 16.6578 40.7063 15.9059 40.7063 15.9059C40.7063 15.9059 37.488 24.7278 32.1633 25.4658C26.8386 26.2038 22.9495 20.9462 22.9495 20.9462ZM22.9495 20.9462C22.9495 20.9462 26.7831 19.9235 29.3009 19.7748C30.902 19.6803 33.4071 19.8543 33.4071 19.8543" stroke="#E3DFDE" stroke-width="1.5" stroke-linecap="round"/>
<path d="M18.3335 19.0274C18.3335 19.0274 19.4158 20.496 19.8742 21.5585C20.9651 24.0874 20.8316 25.879 20.3668 28.5936C19.7976 31.9187 16.4984 36.3171 16.4984 36.3171M18.3335 19.0274C18.3335 19.0274 13.6404 18.6232 11.9506 16.5512C10.0667 14.2414 11.7457 11.1261 11.1802 8.95773C10.6147 6.78938 8.86914 3.18006 8.86914 3.18006C8.86914 3.18006 18.2235 4.00544 20.3144 8.95773C22.4054 13.91 18.3335 19.0274 18.3335 19.0274ZM18.3335 19.0274C18.3335 19.0274 16.3535 15.5891 15.5582 13.1955C15.0525 11.6735 14.5722 9.20861 14.5722 9.20861" stroke="#E3DFDE" stroke-width="1.5" stroke-linecap="round"/>
</svg>