<svg xmlns="http://www.w3.org/2000/svg" viewBox="0 0 26.3 26.8"><path d="M15,11.5a4.9,4.9,0,0,0-3.7-1.6,5.1,5.1,0,0,0-3.8,1.6L3.7,15.3a5.6,5.6,0,0,0-1.5,3.9,5.8,5.8,0,0,0,1.5,3.9,5.5,5.5,0,0,0,3.8,1.6,5.5,5.5,0,0,0,3.8-1.6l1.9-2" style="fill:none;stroke:#78b2b5;stroke-linecap:round;stroke-linejoin:round;stroke-width:4.300000190734863px"/><path d="M11.3,15.3A4.9,4.9,0,0,0,15,16.9a4.9,4.9,0,0,0,3.8-1.6l3.8-3.8a5.7,5.7,0,0,0,1.6-3.9,5.9,5.9,0,0,0-1.6-3.9,5.6,5.6,0,0,0-7.6,0l-1.8,2" style="fill:none;stroke:#78b2b5;stroke-linecap:round;stroke-linejoin:round;stroke-width:4.300000190734863px"/></svg>