<svg xmlns="http://www.w3.org/2000/svg" viewBox="0 0 1175 571.1"><defs><style>.cls-1{fill:#fff;}</style></defs><path class="cls-1" d="M11.4,534.5v-.3c0-2.9,5-2.7,7.1-8.5l33.9-86.6c1.7-4.2-5-6.2-5-9v-.3c0-1.2,1-1.8,2.6-1.8H69.5c1.4,0,2.4.6,2.4,1.8v.3c0,2.8-6.8,4.2-5,8.7l37.7,86.9c2.3,5.6,7.3,5.6,7.3,8.5v.3c0,1.2-1.2,1.8-3,1.8H88.3c-1.9,0-3.1-.6-3.1-1.8v-.3c0-2.9,7.3-3.2,5.2-8.5l-7.5-18H33.8l-6.9,18c-2.1,5.3,5.2,5.6,5.2,8.5v.3c0,1.2-1.2,1.8-3.2,1.8H14.4Q11.4,536.3,11.4,534.5Zm69.2-33.4-23.2-56-21.2,56Z" transform="translate(0 0)"/><path class="cls-1" d="M150.8,499.3c0-22.9,16.8-37.6,37.5-37.7,16.7-.2,29.8,10.4,29.8,18.9,0,3-1.8,5.5-6.1,5.3-8.9-.3-8.7-19.2-26.1-19.3-12.7,0-21.7,11.7-21.7,26.8,0,21.4,12.1,35,29,35,10.7,0,17.7-6.8,21.2-14.4,1.3-2.3,5.1-1.8,4.5,1.2-2.2,11.2-12.2,22.8-29.9,22.8C167.7,537.9,150.8,521.4,150.8,499.3Z" transform="translate(0 0)"/><path class="cls-1" d="M302.5,534c0,2.6-3.1,3.3-9.5,3.3s-11.4-2.8-11.1-11.3l-.3-1c-4.5,8.1-12.7,12.9-23.5,12.9-16.7,0-28.3-12.2-28.3-34.8v-27c0-5.8-5.6-6.3-5.6-8.9v-.4c0-1.1.9-2,2.3-2.3l12.8-2.3c2.6-.5,4.1-.2,4.1,1.8v40.1c0,17.7,6.4,27.8,18,27.8s19.3-9.1,19.3-23.2V476.1c0-5.8-5.9-6.1-5.9-8.9v-.4c0-1.1.8-2,2.3-2.3l13-2.3c2.5-.5,3.9-.2,3.9,1.8v59.2C293.9,534.4,302.5,529.6,302.5,534Z" transform="translate(0 0)"/><path class="cls-1" d="M384.4,498.7c0,22.5-15.7,39.2-34.9,39.2a28,28,0,0,1-22.6-10.6v32.8c0,5.7,5.9,5.7,5.9,8.6v.4c0,1.4-1.2,2-3,2H311c-1.8,0-3.2-.6-3.2-2v-.4c0-2.9,5.6-2.9,5.6-8.6V479.3c0-5.4-6.1-5.5-6.1-8.6v-.4c0-1.2,1-2.2,2.5-2.8l11-5.3c3-1.4,4.2-.2,4.2,2.1v10.1c4.6-7.8,13.7-12.8,24.4-12.8C367.9,461.6,384.4,476.1,384.4,498.7Zm-13.6,3.6c0-21-10.1-35.8-24.9-35.8-9.4,0-17.8,7.6-19,16.9v26.1c0,12.2,10,23.5,20.7,23.5,14.1,0,23.2-11.9,23.2-30.7Z" transform="translate(0 0)"/><path class="cls-1" d="M429.1,498.7c0-21.3,16.2-37.1,37.1-37.1,22.8,0,38.7,17.4,38.7,38.7s-14.5,37.6-36,37.6C444.6,537.9,429.1,519.4,429.1,498.7Zm62.4,6.2c0-21.4-11.3-38.3-26.9-38.3-12.9,0-21.9,10.7-21.9,27.8,0,19.5,11.3,38.4,28,38.4,11.9,0,20.8-10.8,20.8-27.9Z" transform="translate(0 0)"/><path class="cls-1" d="M565,438.8a5.4,5.4,0,0,1-5.4,5.4h-.2c-11.9,0-3.1-15.3-16.7-15.4-10.5-.2-12.5,14.5-9.3,30.2v4.1h21.2a2.2,2.2,0,0,1,2.2,2.1v2a2.1,2.1,0,0,1-2.2,2H533.4v56.3c0,5.5,6.9,5.7,6.9,8.5v.5c0,1.1-.9,1.8-2.3,1.8H516.5c-1.5,0-2.3-.7-2.3-1.8V534c0-2.8,5.8-3,5.8-8.5V469.2H507.3a2.1,2.1,0,0,1-2.2-2h0v-2a2.2,2.2,0,0,1,2.2-2.1H520V449.8c0-14.9,8.7-25.9,24.9-25.9C555.6,423.9,565,430.6,565,438.8Z" transform="translate(0 0)"/><path class="cls-1" d="M672.1,533.9v.5c0,1.2-.7,1.9-2.3,1.9H650.2a2,2,0,0,1-2.3-1.7v-.9c0-3,5-2.9,2.9-6.2l-19.6-28.1a62.1,62.1,0,0,1-16,2.5v23.3c0,5.3,6.1,5.3,6.1,8.5v.7c0,1.2-1.2,1.9-3.2,1.9H599.2c-2,0-3.2-.7-3.2-1.9v-.7c0-3.2,5.6-3.2,5.6-8.5V440.4c0-5.8-5.9-7.1-5.9-9.8v-.2c0-1.2.7-1.8,2.3-2.4l12.8-5.9c2.7-1.4,4.4.1,4.4,2.2v71.1c37.8-1,26.6-33.7,38.9-33.7,4.3,0,6.3,2.6,6.3,6.1,0,5.8-4.5,18.8-18.3,27l23.2,32.7C667.4,530.5,672.1,530.7,672.1,533.9Z" transform="translate(0 0)"/><path class="cls-1" d="M677.6,534.4v-.7c0-2.9,5.5-2.9,5.5-8.2V480c0-5.9-5.5-7.1-5.5-9.4v-.3c0-1.1.9-1.6,2.3-2.3l11.7-5.8c3.2-1.5,4.8,0,4.8,2.1v61.2c0,5.3,6.1,5.3,6.1,8.2v.7c0,1.2-1.4,1.9-3.2,1.9H680.5C678.7,536.3,677.6,535.6,677.6,534.4Zm1.5-95.3c0-5.6,4-9.6,10.3-9.6s9.9,4,9.9,9.6-4,9.5-9.9,9.5-10.3-3.8-10.3-9.5Z" transform="translate(0 0)"/><path class="cls-1" d="M788.7,533.9v.6c0,1.2-1.2,2-3.2,2H767.3c-2,0-3.2-.8-3.2-2v-.6c0-2.9,5.8-2.9,5.5-8.4L768.1,495c-.8-18.6-8.3-27.5-18.8-27.5s-19.1,9-19.1,21.1v37.1c0,5.3,6.1,5.3,6.1,8.2v.6c0,1.2-1.2,2-3.2,2h-19c-1.9,0-3.1-.8-3.1-2v-.6c0-2.9,6-2.9,6-8.2V479.4c0-6.5-6.4-6.2-6.4-9V470c0-1.1.9-1.7,2.4-2.3l11.4-5.5c2.9-1.5,4.3,0,4.3,2.3v11.1c4.4-8.5,13.3-14,23.8-14,15,0,27.5,10,29,33.7l1.7,30.1C783.5,531,788.7,531,788.7,533.9Z" transform="translate(0 0)"/><path class="cls-1" d="M870.3,534.2v.5c0,1-.8,1.6-2.3,1.6H855.2a2.5,2.5,0,0,1-2.6-2.4h0l-.3-7.6c-5.2,7.6-14.2,11.6-23.2,11.6-18.6,0-35.2-15.1-35.2-38.3s15.4-38,35.7-38a28.6,28.6,0,0,1,22.1,9.9V438.2c0-6.4-6.4-6.2-6.4-9v-.3c0-1.2.9-2,2.3-2.6l12.3-4.1c3.2-1.2,4.8-.3,4.8,2.3V525.7C864.7,531.2,870.3,531.6,870.3,534.2Zm-18.6-23.3h.1V487.8c0-9.7-9.8-21.3-22.3-21.3S807.1,477.9,807,495c-.3,20.9,10.1,37.7,25.3,37.8,8.7,0,19.4-7.3,19.4-21.9Z" transform="translate(0 0)"/><path class="cls-1" d="M956.3,533.9v.6c0,1.2-1.2,2-3.2,2H935c-2,0-3.2-.8-3.2-2v-.6c0-2.9,5.8-2.9,5.5-8.4L935.7,495c-.7-18.6-8.2-27.5-18.7-27.5s-19.1,9-19.1,21.1v37.1c0,5.3,6.1,5.3,6.1,8.2v.6c0,1.2-1.2,2-3.2,2H881.7c-1.8,0-3-.8-3-2v-.6c0-2.9,5.9-2.9,5.9-8.2V479.4c0-6.5-6.4-6.2-6.4-9V470c0-1.1.9-1.7,2.5-2.3l11.4-5.5c2.9-1.5,4.3,0,4.3,2.3v11.1c4.4-8.5,13.3-14,23.8-14,14.9,0,27.4,10,29,33.7l1.7,30.1C951.2,531,956.3,531,956.3,533.9Z" transform="translate(0 0)"/><path class="cls-1" d="M1028.4,516c-2,9.2-11.5,21.9-30.3,21.9-21.2,0-36.6-15.6-36.6-38.8s15.3-37.4,36.5-37.5c15.3-.2,26.8,7.1,26.8,20.3,0,10.5-9.6,19-23.9,21.9-9.8,1.9-18.3,1.4-25.8.8,3.4,14.3,13.1,23.5,26.6,23.5,11.6,0,18.9-6,22.1-13.3C1025.2,512.7,1028.7,513.1,1028.4,516Zm-54.5-22.4a50.7,50.7,0,0,0,.3,5.5c6.9.5,16,.8,24.1-.9s13.7-6.6,13.6-16.3-6.7-15.1-16.2-15.1C982.6,466.8,973.9,478.8,973.9,493.6Z" transform="translate(0 0)"/><path class="cls-1" d="M1035.4,520.3c0-3.6,2.4-5.6,5.9-5.6,9.5,0,4.6,18.6,25,18.6,9.8,0,17.4-4.7,17.4-13.4,0-22.5-46.7-7.4-46.7-37.4,0-11.8,11.9-20.9,28.7-20.9,19,0,29.8,9.7,29.8,18a5.4,5.4,0,0,1-5.5,5.3h0c-8.7,0-4.9-18.6-23.7-18.6-8.8,0-15.7,5.7-15.7,13.3,0,22,46.6,7,46.6,37.5,0,11.5-11.9,20.6-30.9,20.6S1035.4,527.5,1035.4,520.3Z" transform="translate(0 0)"/><path class="cls-1" d="M1104.6,520.3c0-3.6,2.5-5.6,6-5.6,9.4,0,4.6,18.6,25,18.6,9.8,0,17.4-4.7,17.4-13.4,0-22.5-46.7-7.4-46.7-37.4,0-11.8,11.9-20.9,28.7-20.9,18.9,0,29.7,9.7,29.7,18a5.3,5.3,0,0,1-5.3,5.3h-.1c-8.7,0-4.9-18.6-23.7-18.6-8.8,0-15.7,5.7-15.7,13.3,0,22,46.5,7,46.5,37.5,0,11.5-11.9,20.6-30.8,20.6S1104.6,527.5,1104.6,520.3Z" transform="translate(0 0)"/><path class="cls-1" d="M446.6,65.1S448.2,24.9,458,9.2L381.5,23.4c9.8,7.6,12.7,20.3,12.8,37.2l.9,221c0,12.6,0,19.8-13.3,28h75s-9.5-8.6-9.5-28.8Z" transform="translate(0 0)"/><path class="cls-1" d="M963.1,309.6c-15.7-7.5-14-20.6-14.1-32.8V167c0-32-15.4-59.9-54-64.4-30.3-4-102.6,7.4-102.6,7.4v62.2c36.9-21.1,51.6-22.9,65.6-22.9,16.7-.1,32.5,9.2,32.5,20.8,0,16.2-23.9,13.6-44.9,16.4-30.2,4-70.2,20.7-70.2,62.5s24.3,66.1,61.3,66.1c43,0,59-19.1,59-19.1v13.6ZM833.7,250.9c-.1-15.6,12.6-23.5,28-26.9a236,236,0,0,1,31.3-4.5C891.3,288,833.8,280.4,833.7,250.9Z" transform="translate(0 0)"/><path class="cls-1" d="M1165.1,277.3l-.5-107c0-36.4-28-60.2-71-60.2-36.4,0-48.5,17.8-49.9,18.8V5.6L973.5,19.8c9.9,16.2,9.4,24.1,9.5,34.9l.9,214c-.1,9.2,2.2,32-12,40.9h81c-11.1-12.1-11.1-27.7-11.1-39.4l-.4-81.1c0-15.3,8.8-33.2,30.2-33.2,29.7,0,34.9,20.2,34.9,32.9l.4,88.7c0,14-2.3,22.9-9.1,32.1H1175c-10.5-8-9.9-25.9-9.9-32.3" transform="translate(0 0)"/><path class="cls-1" d="M760.2,169.2c0-29.3-24.5-55.2-57.8-55s-59.6,27.5-59.6,27.5-11.2-22-42.8-25.7c-9.6-1.1-15.9-.9-26.4.4-27.5,3.5-40.1,21.1-40.1,21.1V113.8l-62.7,10.7c10.6,7.1,10.7,11.5,10.7,38.4l.5,121.4c0,8.6-2.3,20.6-9.1,25.3H546c-8.3-10.4-9.5-15.7-9.5-27.9,0-1.9-.1-97.9-.1-97.9,0-10.9,13.1-19.6,28.6-19.7s29.2,7.2,29.2,22.1c0,9.7.4,82.9.4,97.6s.1,18.8-6.9,25.8h68.5c-7.6-7.5-8.4-13.7-8.4-24.9,0,0-.2-84.8-.2-99.8,0-12.3,15-21.2,28.9-21.2,16-.1,31.5,7,31.5,25.8,0,4.4.4,92.7.4,92.7,0,10-1.1,18.7-9.2,27.4h69.4c-5.3-7.5-8.1-12.8-8.1-28.8C760.5,280.8,760.2,198.4,760.2,169.2Z" transform="translate(0 0)"/><path class="cls-1" d="M360.6,112.4s-59.4,11-64,11.3c7,9.3,8.2,11.6,8.2,27.9l.5,125.6c0,18-7.5,27.5-10.3,32.4h75.5c-9.5-9.4-9.9-17.2-9.9-36.1C360.6,273.5,360.9,139.3,360.6,112.4Z" transform="translate(0 0)"/><rect class="cls-1" x="304.6" y="35" width="49.9" height="49.9" transform="translate(54.2 250.6) rotate(-45)"/><path class="cls-1" d="M145,.7C103.2-3.2,62.9,9.9,45.8,11.2,4.7,14.4,0,11.2,0,11.2,18.3,33.8,16.5,57.6,16.5,80.3V241.7c0,22.7,1.8,46.4-16.5,69.1,0,0,4.7-3.2,45.8,0,17.1,1.3,57.4,14.4,99.2,10.4s138.9-27,138.9-160.2S186.8,4.7,145,.7ZM116.3,265.9c-13.5-.1-24.9-2.5-36-4.8V60.9c11.1-2.4,22.5-4.8,36-4.8,50.6-.2,96.8,24,96.8,104.9S166.9,266.1,116.3,265.9Z" transform="translate(0 0)"/></svg>