<svg xmlns="http://www.w3.org/2000/svg" width="26" height="26" fill="none"><g filter="url(#a)" transform="translate(-8 -5)"><g transform="translate(3 1.9) scale(.61905)"><circle cx="29" cy="26" r="21" fill="#febf21"/><path d="M41 33.1 31 14.6a2.3 2.3 0 0 0-4.1 0l-10 18.5a2.3 2.3 0 0 0 2 3.5h20a2.3 2.3 0 0 0 2-3.5zM28 19.2a1 1 0 1 1 2 0V28a1 1 0 0 1-2 0v-8.7zm1 14.4a1.3 1.3 0 1 1 0-2.6 1.3 1.3 0 0 1 0 2.6z" fill="#f5f3f2"/></g></g><defs><filter id="a" x="0" y="0" width="60" height="60" filterUnits="userSpaceOnUse" color-interpolation-filters="sRGB"><feFlood flood-opacity="0" result="A"/><feColorMatrix in="SourceAlpha" values="0 0 0 0 0 0 0 0 0 0 0 0 0 0 0 0 0 0 127 0" result="B"/><feOffset dx="1" dy="4"/><feGaussianBlur stdDeviation="4.5"/><feComposite in2="B" operator="out"/><feColorMatrix values="0 0 0 0 0.258333 0 0 0 0 0.258333 0 0 0 0 0.258333 0 0 0 0.24 0"/><feBlend in2="A"/><feBlend in="SourceGraphic"/></filter></defs></svg>