<?xml version="1.0" encoding="utf-8"?>
<svg xmlns="http://www.w3.org/2000/svg" viewBox="0 0 19.1 19.1">
  <path d="M2,1.9,3.8,13.5c.1.2.2.5.4.6s.4.2.6.2H15.9c.1-.2.3-.3.3-.5l2.9-9.6V3.7a.5.5,0,0,0-.2-.4q-.1-.3-.3-.3H4.1L3.8.8A.9.9,0,0,0,3.5.2L2.9,0H.6L.3.3.1.6C0,.7,0,.8,0,1a.4.4,0,0,0,.1.3l.2.3.3.2H2ZM5.6,12.4,4.4,4.8H16.9l-2.3,7.6Zm2,4.8a2.4,2.4,0,0,1-.5,1.4,2.4,2.4,0,0,1-1.4.5,1.9,1.9,0,0,1-1.3-.5,2,2,0,0,1-.6-1.4,1.6,1.6,0,0,1,.6-1.3,1.6,1.6,0,0,1,1.3-.6,2,2,0,0,1,1.4.6,1.9,1.9,0,0,1,.5,1.3Zm8.7,0a2,2,0,0,1-.6,1.4,2.4,2.4,0,0,1-1.4.5,1.9,1.9,0,0,1-1.3-.5,2,2,0,0,1-.6-1.4,1.6,1.6,0,0,1,.6-1.3,1.6,1.6,0,0,1,1.3-.6,2,2,0,0,1,1.4.6,1.6,1.6,0,0,1,.6,1.3Z" style="fill:#2b4b50"/>
</svg>