<?xml version="1.0" encoding="utf-8"?>
<svg xmlns="http://www.w3.org/2000/svg" viewBox="0 0 26.7 26.7">
  <path d="M5.3,18.8,2.9,2.7H1.3a1.5,1.5,0,0,1-.9-.4,1.3,1.3,0,0,1-.4-1A1.1,1.1,0,0,1,.4.4,1.1,1.1,0,0,1,1.3,0H4l.9.3a1.2,1.2,0,0,1,.4.8L5.8,4H16V6.7H6.2L7.8,17.3H20.3l2-6.6h2.8L22.6,19c-.1.3-.2.6-.5.7a1.1,1.1,0,0,1-.8.3H6.7a1.4,1.4,0,0,1-.9-.3,1.3,1.3,0,0,1-.5-.9ZM10.7,24a2.7,2.7,0,1,1-.8-1.9A2.7,2.7,0,0,1,10.7,24Zm12,0a2.7,2.7,0,1,1-.8-1.9A2.7,2.7,0,0,1,22.7,24Zm0-24a1.1,1.1,0,0,1,.9.4,1.1,1.1,0,0,1,.4.9V2.7h1.3a1.3,1.3,0,0,1,1,.4,1.3,1.3,0,0,1,.4.9,1.3,1.3,0,0,1-.4.9,1.3,1.3,0,0,1-1,.4H24V6.7a1.1,1.1,0,0,1-.4.9,1.1,1.1,0,0,1-.9.4,1.3,1.3,0,0,1-1-.4,1.5,1.5,0,0,1-.4-.9V5.3H20a1,1,0,0,1-.9-.4,1,1,0,0,1-.4-.9,1,1,0,0,1,.4-.9,1,1,0,0,1,.9-.4h1.3V1.3a1.5,1.5,0,0,1,.4-.9A1.3,1.3,0,0,1,22.7,0Z" style="fill:#2b4b50"/>
</svg>