<?xml version="1.0" encoding="utf-8"?>
<svg xmlns="http://www.w3.org/2000/svg" fill="none" viewBox="0 0 26 26">
  <g filter="url(#a)" transform="translate(-17.6 -12.3)">
    <g transform="translate(12.7 9.2) scale(.61908)">
      <circle cx="29" cy="26" fill="#fb5758" r="21"/>
      <path d="M29 13a13 13 0 1 0 0 26 13 13 0 0 0 0-26zm4.4 10.3a1.2 1.2 0 0 0-1.7-1.7L29 24.3l-2.7-2.7a1.2 1.2 0 1 0-1.7 1.7l2.7 2.7-2.7 2.7a1.2 1.2 0 1 0 1.7 1.7l2.7-2.7 2.7 2.7a1.2 1.2 0 0 0 1.7-1.7L30.7 26Z" fill="#f5f3f2" fill-rule="evenodd"/>
    </g>
  </g>
  <defs>
    <filter color-interpolation-filters="sRGB" filterUnits="userSpaceOnUse" height="60" id="a" width="60" x="0" y="0">
      <feFlood flood-opacity="0" result="A"/>
      <feColorMatrix in="SourceAlpha" result="B" values="0 0 0 0 0 0 0 0 0 0 0 0 0 0 0 0 0 0 127 0"/>
      <feOffset dx="1" dy="4"/>
      <feGaussianBlur stdDeviation="4.5"/>
      <feComposite in2="B" operator="out"/>
      <feColorMatrix values="0 0 0 0 0.258333 0 0 0 0 0.258333 0 0 0 0 0.258333 0 0 0 0.24 0"/>
      <feBlend in2="A"/>
      <feBlend in="SourceGraphic"/>
    </filter>
  </defs>
</svg>