<?xml version="1.0" encoding="utf-8"?>
<svg xmlns="http://www.w3.org/2000/svg" viewBox="0 0 1175 322">
  <defs>
    <style>.a{fill:#4e878a}</style>
  </defs>
  <path class="a" d="M446.6 65.1s1.6-40.2 11.4-55.9l-76.5 14.2c9.8 7.6 12.7 20.3 12.8 37.2l.9 221c0 12.6 0 19.8-13.3 28h75s-9.5-8.6-9.5-28.8ZM963.1 309.6c-15.7-7.5-14-20.6-14.1-32.8V167c0-32-15.4-59.9-54-64.4-30.3-4-102.6 7.4-102.6 7.4v62.2c36.9-21.1 51.6-22.9 65.6-22.9 16.7-.1 32.5 9.2 32.5 20.8 0 16.2-23.9 13.6-44.9 16.4-30.2 4-70.2 20.7-70.2 62.5s24.3 66.1 61.3 66.1c43 0 59-19.1 59-19.1v13.6Zm-129.4-58.7c-.1-15.6 12.6-23.5 28-26.9a236 236 0 0 1 31.3-4.5c-1.7 68.5-59.2 60.9-59.3 31.4ZM1165.1 277.3l-.5-107c0-36.4-28-60.2-71-60.2-36.4 0-48.5 17.8-49.9 18.8V5.6l-70.2 14.2c9.9 16.2 9.4 24.1 9.5 34.9l.9 214c-.1 9.2 2.2 32-12 40.9h81c-11.1-12.1-11.1-27.7-11.1-39.4l-.4-81.1c0-15.3 8.8-33.2 30.2-33.2 29.7 0 34.9 20.2 34.9 32.9l.4 88.7c0 14-2.3 22.9-9.1 32.1h77.2c-10.5-8-9.9-25.9-9.9-32.3M760.2 169.2c0-29.3-24.5-55.2-57.8-55s-59.6 27.5-59.6 27.5-11.2-22-42.8-25.7a97.8 97.8 0 0 0-26.4.4 60 60 0 0 0-40.1 21.1v-23.7l-62.7 10.7c10.6 7.1 10.7 11.5 10.7 38.4l.5 121.4c0 8.6-2.3 20.6-9.1 25.3H546a35.9 35.9 0 0 1-9.5-27.9l-.1-97.9c0-10.9 13.1-19.6 28.6-19.7s29.2 7.2 29.2 22.1l.4 97.6c0 14.7.1 18.8-6.9 25.8h68.5c-7.6-7.5-8.4-13.7-8.4-24.9l-.2-99.8c0-12.3 15-21.2 28.9-21.2 16-.1 31.5 7 31.5 25.8l.4 92.7c0 10-1.1 18.7-9.2 27.4h69.4c-5.3-7.5-8.1-12.8-8.1-28.8l-.3-111.6ZM360.6 112.4s-59.4 11-64 11.3c7 9.3 8.2 11.6 8.2 27.9l.5 125.6c0 18-7.5 27.5-10.3 32.4h75.5c-9.5-9.4-9.9-17.2-9.9-36.1 0 0 .3-134.2 0-161.1ZM294.2 60l35.3-35.3L364.8 60l-35.3 35.2zM145 .7c-41.8-3.9-82.1 9.2-99.2 10.5-41.1 3.2-45.8 0-45.8 0 18.3 22.6 16.5 46.4 16.5 69.1v161.4c0 22.7 1.8 46.4-16.5 69.1 0 0 4.7-3.2 45.8 0 17.1 1.3 57.4 14.4 99.2 10.4s138.9-27 138.9-160.2S186.8 4.7 145 .7Zm-28.7 265.2c-13.5-.1-24.9-2.5-36-4.8V60.9c11.1-2.4 22.5-4.8 36-4.8 50.6-.2 96.8 24 96.8 104.9s-46.2 105.1-96.8 104.9Z"/>
</svg>