<svg xmlns="http://www.w3.org/2000/svg" viewBox="0 0 22.3 20.9"><path d="M21.8,6.8A6,6,0,0,0,20,2.4a6.3,6.3,0,0,0-8.8-.2A6.4,6.4,0,0,0,6.8.5,6.1,6.1,0,0,0,2.4,2.4,6.1,6.1,0,0,0,.5,6.8a6.4,6.4,0,0,0,1.9,4.5l.8.8a1.7,1.7,0,0,0,.1,2.1,1.6,1.6,0,0,0,1.1.5h.5a1.4,1.4,0,0,0,.3,1.5,2.1,2.1,0,0,0,1.2.5h.4a.9.9,0,0,0-.1.5,1.6,1.6,0,0,0,.5,1.1,1.5,1.5,0,0,0,1.1.4h.4c0,.1-.1.2-.1.4A1.6,1.6,0,0,0,9.1,20a1.5,1.5,0,0,0,1.1.4,1.5,1.5,0,0,0,1.1-.4l.9-.8a1.4,1.4,0,0,0,.9.3,1.6,1.6,0,0,0,1.1-.5,1.4,1.4,0,0,0,.4-1.5H15a1.6,1.6,0,0,0,1.1-.5,1.3,1.3,0,0,0,.4-1.5H17a1.5,1.5,0,0,0,1.1-.4,1.8,1.8,0,0,0,.4-1.6h.4a1.6,1.6,0,0,0,1.1-.5,1.4,1.4,0,0,0,.1-2A6.4,6.4,0,0,0,21.8,6.8ZM11.3,2.6a6,6,0,0,1,8.4,0,6.3,6.3,0,0,1,1.7,4.2,5.6,5.6,0,0,1-1.6,4.1L13.2,4.3H13L8.6,8.6a1.2,1.2,0,0,1-.8.4A1.2,1.2,0,0,1,7,8.6,1,1,0,0,1,7,7ZM4.4,14.3a1.2,1.2,0,0,1-.8-.4,1.2,1.2,0,0,1,0-1.6l1.9-1.9a1.2,1.2,0,0,1,.9-.4.9.9,0,0,1,.8.4,1.2,1.2,0,0,1,0,1.6l-2,1.9A1.2,1.2,0,0,1,4.4,14.3Zm1.1,1.6a1.4,1.4,0,0,1,0-1.7l2-1.9a1.2,1.2,0,0,1,.8-.4,1.2,1.2,0,0,1,.8.4,1,1,0,0,1,0,1.6l-1.9,2A1.4,1.4,0,0,1,5.5,15.9Zm2.8,2.2a1.1,1.1,0,0,1-.8-.3.9.9,0,0,1-.4-.8,1.1,1.1,0,0,1,.4-.9l1.9-1.9a1.2,1.2,0,0,1,1.6,0,1.2,1.2,0,0,1,0,1.7L9.1,17.8A1.1,1.1,0,0,1,8.3,18.1ZM11,19.7a1.2,1.2,0,0,1-1.6,0,1.2,1.2,0,0,1-.4-.8,1.2,1.2,0,0,1,.4-.8l1.9-2a1.1,1.1,0,0,1,.8-.3l.9.3a1.4,1.4,0,0,1,0,1.7l-1,.9h0Zm2.9-1a1.2,1.2,0,0,1-1.5.2l.8-.8a1.6,1.6,0,0,0,.5-1.2l.2.2A1,1,0,0,1,13.9,18.7ZM19.7,13a1.2,1.2,0,0,1-1.6,0L13.2,8.1H13a.2.2,0,0,0,0,.3l4.8,4.8a1.4,1.4,0,0,1,0,1.7,1.1,1.1,0,0,1-.8.3,1.4,1.4,0,0,1-.9-.3l-4.8-4.8H11v.3l4.9,4.8a1.2,1.2,0,0,1,0,1.6,1.8,1.8,0,0,1-.9.4,1.2,1.2,0,0,1-.8-.4l-1-.9a1.4,1.4,0,0,0-1.1-.5h-.4a1.6,1.6,0,0,0-.4-1.6,1.5,1.5,0,0,0-1.1-.4H9.8A1.7,1.7,0,0,0,9.4,12a1.6,1.6,0,0,0-1.1-.5H7.8a1.4,1.4,0,0,0-.3-1.5,1.7,1.7,0,0,0-2.3,0L3.5,11.9,2.6,11A5.9,5.9,0,0,1,.9,6.8,6.3,6.3,0,0,1,2.6,2.6,6.3,6.3,0,0,1,6.8.9a6,6,0,0,1,4.1,1.6L6.7,6.7a1.6,1.6,0,0,0,0,2.2,1.6,1.6,0,0,0,1.1.5,1.6,1.6,0,0,0,1.1-.5l4.2-4.2,4.7,4.7,1.9,1.9A1.2,1.2,0,0,1,19.7,13Z" transform="translate(0 0)" style="fill:#2b4b50;stroke:#2b4b50"/></svg>