<?xml version="1.0" encoding="utf-8"?>
<svg xmlns="http://www.w3.org/2000/svg" viewBox="0 0 27.5 20.8">
  <path d="M20.6 0a11.3 11.3 0 0 0-6.8 1.9A11.8 11.8 0 0 0 6.9 0a14 14 0 0 0-5.4 1A2.5 2.5 0 0 0 0 3.3v14.1a2.5 2.5 0 0 0 3.1 2.4 15.8 15.8 0 0 1 3.8-.4 13.8 13.8 0 0 1 5.7 1.1 2.4 2.4 0 0 0 2.3 0 13.8 13.8 0 0 1 5.7-1.1 15.8 15.8 0 0 1 3.8.4 2.5 2.5 0 0 0 3.1-2.4V3.3A2.5 2.5 0 0 0 26 1a14 14 0 0 0-5.4-1ZM25 15.9a1.2 1.2 0 0 1-1.5 1.2l-2.9-.2a14.1 14.1 0 0 0-6.8 1.9V4.4a14.1 14.1 0 0 1 6.8-1.9 18.7 18.7 0 0 1 3.4.3 1.4 1.4 0 0 1 1 1.3Z" fill="#2b4b50"/>
  <path d="M16.2 8a1 1 0 0 1-.9-.6 1 1 0 0 1 .6-1.2 18.5 18.5 0 0 1 6.7-.6 1.2 1.2 0 0 1 .9 1.1 1 1 0 0 1-1.1.8 16.3 16.3 0 0 0-5.9.5Zm0 3.4a1.1 1.1 0 0 1-.9-.7 1 1 0 0 1 .6-1.2 16.4 16.4 0 0 1 6.7-.5 1 1 0 0 1 .9 1 1 1 0 0 1-1.1.8 16.3 16.3 0 0 0-5.9.5Zm0 3.3a1.1 1.1 0 0 1-.9-.7.9.9 0 0 1 .6-1.1 14.8 14.8 0 0 1 6.7-.6 1.1 1.1 0 0 1 .9 1 1.2 1.2 0 0 1-1.1.9 14.4 14.4 0 0 0-5.9.4Z" fill="#2b4b50"/>
</svg>