<?xml version="1.0" encoding="utf-8"?>
<svg xmlns="http://www.w3.org/2000/svg" viewBox="0 0 24.4 25.6">
  <path d="M24.2,0,22.6.5a17.6,17.6,0,0,1-8.2.8A16.1,16.1,0,0,0,5.7,2.5,9,9,0,0,0,2.1,5.3,9.4,9.4,0,0,0,.2,9.5a9.3,9.3,0,0,0,.1,4.4A10.1,10.1,0,0,0,2.1,18a3.1,3.1,0,0,0-.2.8,26.3,26.3,0,0,0-.8,6.8H3.7a34.5,34.5,0,0,1,.7-5.5,13.1,13.1,0,0,0,5.9,1.4,14.6,14.6,0,0,0,5.5-1.1c9.8-4.2,8.5-18.2,8.5-18.8ZM14.8,18c-3.4,1.4-7.4,1.2-9.7-.6a17.3,17.3,0,0,1,1.6-3.7,12.1,12.1,0,0,1,4.1-4.1,13.9,13.9,0,0,1,5.8-2V6.3A14.3,14.3,0,0,0,9.8,7.7a12,12,0,0,0-5.3,4.7,18.3,18.3,0,0,0-1.3,2.4A8.7,8.7,0,0,1,2.7,10,5.9,5.9,0,0,1,4.1,6.9,7.5,7.5,0,0,1,6.7,4.8a12.5,12.5,0,0,1,5-1.1l2.4.2a22.1,22.1,0,0,0,7.7-.5C21.8,7,21.1,15.3,14.8,18Z" style="fill:#2b4b50"/>
</svg>