<?xml version="1.0" encoding="utf-8"?>
<svg xmlns="http://www.w3.org/2000/svg" fill="none" viewBox="0 0 26 26">
  <g filter="url(#a)" transform="translate(-8 -5)">
    <g transform="translate(3 1.9) scale(.61905)">
      <circle cx="29" cy="26" fill="#3087e9" r="21"/>
      <path d="M29 13a13 13 0 1 0 0 26 13 13 0 0 0 0-26zm0 5.3a1.7 1.7 0 1 1 0 3.4 1.7 1.7 0 0 1 0-3.4zM32.1 33h-5.7a1 1 0 0 1 0-2h1.8v-5.8h-1a1 1 0 0 1 0-2h2a1 1 0 0 1 1.1 1v6.7h1.8a1 1 0 0 1 0 2.1z" fill="#f5f3f2"/>
    </g>
  </g>
  <defs>
    <filter color-interpolation-filters="sRGB" filterUnits="userSpaceOnUse" height="60" id="a" width="60" x="0" y="0">
      <feFlood flood-opacity="0" result="A"/>
      <feColorMatrix in="SourceAlpha" result="B" values="0 0 0 0 0 0 0 0 0 0 0 0 0 0 0 0 0 0 127 0"/>
      <feOffset dx="1" dy="4"/>
      <feGaussianBlur stdDeviation="4.5"/>
      <feComposite in2="B" operator="out"/>
      <feColorMatrix values="0 0 0 0 0.258333 0 0 0 0 0.258333 0 0 0 0 0.258333 0 0 0 0.24 0"/>
      <feBlend in2="A"/>
      <feBlend in="SourceGraphic"/>
    </filter>
  </defs>
</svg>