<?xml version="1.0" encoding="utf-8"?>
<svg xmlns="http://www.w3.org/2000/svg" viewBox="0 0 34.2 34.8">
  <defs>
    <style>.a{fill:none;stroke:#e3dfde;stroke-linecap:round;stroke-width:1.5px;}</style>
  </defs>
  <path class="a" d="M12.5,19.5l2.8-.9m0,0s1.6-4.4,4.1-5.5,5.3,1.2,7.5,1.2a49,49,0,0,0,6.2-.7s-3.2,8.8-8.6,9.5S15.3,18.6,15.3,18.6Zm0,0a39.8,39.8,0,0,1,6.4-1.1c1.6-.1,4.1,0,4.1,0"/>
  <path class="a" d="M10.7,16.7a23,23,0,0,1,1.6,2.5,11.5,11.5,0,0,1,.4,7.1C12.2,29.6,8.9,34,8.9,34m1.8-17.3S6,16.3,4.3,14.2s-.2-5.4-.7-7.6A51.1,51.1,0,0,0,1.3.9s9.3.8,11.4,5.7S10.7,16.7,10.7,16.7Zm0,0a39.2,39.2,0,0,1-2.8-5.8,32.5,32.5,0,0,1-.9-4"/>
</svg>