<?xml version="1.0" encoding="utf-8"?>
<svg xmlns="http://www.w3.org/2000/svg" viewBox="0 0 1175 571.1">
  <defs>
    <style>.a{fill:#fff}</style>
  </defs>
  <path class="a" d="M11.4 534.5v-.3c0-2.9 5-2.7 7.1-8.5l33.9-86.6c1.7-4.2-5-6.2-5-9v-.3c0-1.2 1-1.8 2.6-1.8h19.5c1.4 0 2.4.6 2.4 1.8v.3c0 2.8-6.8 4.2-5 8.7l37.7 86.9c2.3 5.6 7.3 5.6 7.3 8.5v.3c0 1.2-1.2 1.8-3 1.8H88.3c-1.9 0-3.1-.6-3.1-1.8v-.3c0-2.9 7.3-3.2 5.2-8.5l-7.5-18H33.8l-6.9 18c-2.1 5.3 5.2 5.6 5.2 8.5v.3c0 1.2-1.2 1.8-3.2 1.8H14.4q-3 0-3-1.8Zm69.2-33.4-23.2-56-21.2 56ZM150.8 499.3a36.4 36.4 0 0 1 37.5-37.7c16.7-.2 29.8 10.4 29.8 18.9 0 3-1.8 5.5-6.1 5.3-8.9-.3-8.7-19.2-26.1-19.3-12.7 0-21.7 11.7-21.7 26.8 0 21.4 12.1 35 29 35a23 23 0 0 0 21.2-14.4c1.3-2.3 5.1-1.8 4.5 1.2-2.2 11.2-12.2 22.8-29.9 22.8a37.8 37.8 0 0 1-38.2-38.6ZM302.5 534c0 2.6-3.1 3.3-9.5 3.3s-11.4-2.8-11.1-11.3l-.3-1a25.5 25.5 0 0 1-23.5 12.9c-16.7 0-28.3-12.2-28.3-34.8v-27c0-5.8-5.6-6.3-5.6-8.9v-.4c0-1.1.9-2 2.3-2.3l12.8-2.3c2.6-.5 4.1-.2 4.1 1.8v40.1c0 17.7 6.4 27.8 18 27.8s19.3-9.1 19.3-23.2v-32.6c0-5.8-5.9-6.1-5.9-8.9v-.4c0-1.1.8-2 2.3-2.3l13-2.3c2.5-.5 3.9-.2 3.9 1.8v59.2c-.1 11.2 8.5 6.4 8.5 10.8ZM384.4 498.7c0 22.5-15.7 39.2-34.9 39.2a28 28 0 0 1-22.6-10.6v32.8c0 5.7 5.9 5.7 5.9 8.6v.4c0 1.4-1.2 2-3 2H311c-1.8 0-3.2-.6-3.2-2v-.4c0-2.9 5.6-2.9 5.6-8.6v-80.8c0-5.4-6.1-5.5-6.1-8.6v-.4c0-1.2 1-2.2 2.5-2.8l11-5.3c3-1.4 4.2-.2 4.2 2.1v10.1a27.8 27.8 0 0 1 24.4-12.8c18.5 0 35 14.5 35 37.1Zm-13.6 3.6c0-21-10.1-35.8-24.9-35.8-9.4 0-17.8 7.6-19 16.9v26.1c0 12.2 10 23.5 20.7 23.5 14.1 0 23.2-11.9 23.2-30.7ZM429.1 498.7a36.3 36.3 0 0 1 37.1-37.1c22.8 0 38.7 17.4 38.7 38.7s-14.5 37.6-36 37.6a38.6 38.6 0 0 1-39.8-39.2Zm62.4 6.2c0-21.4-11.3-38.3-26.9-38.3-12.9 0-21.9 10.7-21.9 27.8 0 19.5 11.3 38.4 28 38.4 11.9 0 20.8-10.8 20.8-27.9ZM565 438.8a5.4 5.4 0 0 1-5.4 5.4h-.2c-11.9 0-3.1-15.3-16.7-15.4-10.5-.2-12.5 14.5-9.3 30.2v4.1h21.2a2.2 2.2 0 0 1 2.2 2.1v2a2.1 2.1 0 0 1-2.2 2h-21.2v56.3c0 5.5 6.9 5.7 6.9 8.5v.5c0 1.1-.9 1.8-2.3 1.8h-21.5c-1.5 0-2.3-.7-2.3-1.8v-.5c0-2.8 5.8-3 5.8-8.5v-56.3h-12.7a2.1 2.1 0 0 1-2.2-2v-2a2.2 2.2 0 0 1 2.2-2.1H520v-13.3c0-14.9 8.7-25.9 24.9-25.9 10.7 0 20.1 6.7 20.1 14.9ZM672.1 533.9v.5c0 1.2-.7 1.9-2.3 1.9h-19.6a2 2 0 0 1-2.3-1.7v-.9c0-3 5-2.9 2.9-6.2l-19.6-28.1a62.1 62.1 0 0 1-16 2.5v23.3c0 5.3 6.1 5.3 6.1 8.5v.7c0 1.2-1.2 1.9-3.2 1.9h-18.9c-2 0-3.2-.7-3.2-1.9v-.7c0-3.2 5.6-3.2 5.6-8.5v-84.8c0-5.8-5.9-7.1-5.9-9.8v-.2c0-1.2.7-1.8 2.3-2.4l12.8-5.9c2.7-1.4 4.4.1 4.4 2.2v71.1c37.8-1 26.6-33.7 38.9-33.7 4.3 0 6.3 2.6 6.3 6.1 0 5.8-4.5 18.8-18.3 27l23.2 32.7c2.1 3 6.8 3.2 6.8 6.4ZM677.6 534.4v-.7c0-2.9 5.5-2.9 5.5-8.2V480c0-5.9-5.5-7.1-5.5-9.4v-.3c0-1.1.9-1.6 2.3-2.3l11.7-5.8c3.2-1.5 4.8 0 4.8 2.1v61.2c0 5.3 6.1 5.3 6.1 8.2v.7c0 1.2-1.4 1.9-3.2 1.9h-18.8c-1.8 0-2.9-.7-2.9-1.9Zm1.5-95.3c0-5.6 4-9.6 10.3-9.6s9.9 4 9.9 9.6-4 9.5-9.9 9.5-10.3-3.8-10.3-9.5ZM788.7 533.9v.6c0 1.2-1.2 2-3.2 2h-18.2c-2 0-3.2-.8-3.2-2v-.6c0-2.9 5.8-2.9 5.5-8.4l-1.5-30.5c-.8-18.6-8.3-27.5-18.8-27.5s-19.1 9-19.1 21.1v37.1c0 5.3 6.1 5.3 6.1 8.2v.6c0 1.2-1.2 2-3.2 2h-19c-1.9 0-3.1-.8-3.1-2v-.6c0-2.9 6-2.9 6-8.2v-46.3c0-6.5-6.4-6.2-6.4-9v-.4c0-1.1.9-1.7 2.4-2.3l11.4-5.5c2.9-1.5 4.3 0 4.3 2.3v11.1c4.4-8.5 13.3-14 23.8-14 15 0 27.5 10 29 33.7l1.7 30.1c.3 5.6 5.5 5.6 5.5 8.5ZM870.3 534.2v.5c0 1-.8 1.6-2.3 1.6h-12.8a2.5 2.5 0 0 1-2.6-2.4l-.3-7.6a28 28 0 0 1-23.2 11.6c-18.6 0-35.2-15.1-35.2-38.3s15.4-38 35.7-38a28.6 28.6 0 0 1 22.1 9.9v-33.3c0-6.4-6.4-6.2-6.4-9v-.3c0-1.2.9-2 2.3-2.6l12.3-4.1c3.2-1.2 4.8-.3 4.8 2.3v101.2c0 5.5 5.6 5.9 5.6 8.5Zm-18.6-23.3h.1v-23.1c0-9.7-9.8-21.3-22.3-21.3S807.1 477.9 807 495c-.3 20.9 10.1 37.7 25.3 37.8 8.7 0 19.4-7.3 19.4-21.9ZM956.3 533.9v.6c0 1.2-1.2 2-3.2 2H935c-2 0-3.2-.8-3.2-2v-.6c0-2.9 5.8-2.9 5.5-8.4l-1.6-30.5c-.7-18.6-8.2-27.5-18.7-27.5s-19.1 9-19.1 21.1v37.1c0 5.3 6.1 5.3 6.1 8.2v.6c0 1.2-1.2 2-3.2 2h-19.1c-1.8 0-3-.8-3-2v-.6c0-2.9 5.9-2.9 5.9-8.2v-46.3c0-6.5-6.4-6.2-6.4-9v-.4c0-1.1.9-1.7 2.5-2.3l11.4-5.5c2.9-1.5 4.3 0 4.3 2.3v11.1c4.4-8.5 13.3-14 23.8-14 14.9 0 27.4 10 29 33.7l1.7 30.1c.3 5.6 5.4 5.6 5.4 8.5ZM1028.4 516c-2 9.2-11.5 21.9-30.3 21.9-21.2 0-36.6-15.6-36.6-38.8s15.3-37.4 36.5-37.5c15.3-.2 26.8 7.1 26.8 20.3 0 10.5-9.6 19-23.9 21.9a91.5 91.5 0 0 1-25.8.8c3.4 14.3 13.1 23.5 26.6 23.5 11.6 0 18.9-6 22.1-13.3 1.4-2.1 4.9-1.7 4.6 1.2Zm-54.5-22.4a50.7 50.7 0 0 0 .3 5.5c6.9.5 16 .8 24.1-.9s13.7-6.6 13.6-16.3-6.7-15.1-16.2-15.1c-13.1 0-21.8 12-21.8 26.8ZM1035.4 520.3c0-3.6 2.4-5.6 5.9-5.6 9.5 0 4.6 18.6 25 18.6 9.8 0 17.4-4.7 17.4-13.4 0-22.5-46.7-7.4-46.7-37.4 0-11.8 11.9-20.9 28.7-20.9 19 0 29.8 9.7 29.8 18a5.4 5.4 0 0 1-5.5 5.3c-8.7 0-4.9-18.6-23.7-18.6-8.8 0-15.7 5.7-15.7 13.3 0 22 46.6 7 46.6 37.5 0 11.5-11.9 20.6-30.9 20.6s-30.9-10.2-30.9-17.4ZM1104.6 520.3c0-3.6 2.5-5.6 6-5.6 9.4 0 4.6 18.6 25 18.6 9.8 0 17.4-4.7 17.4-13.4 0-22.5-46.7-7.4-46.7-37.4 0-11.8 11.9-20.9 28.7-20.9 18.9 0 29.7 9.7 29.7 18a5.3 5.3 0 0 1-5.3 5.3h-.1c-8.7 0-4.9-18.6-23.7-18.6-8.8 0-15.7 5.7-15.7 13.3 0 22 46.5 7 46.5 37.5 0 11.5-11.9 20.6-30.8 20.6s-31-10.2-31-17.4ZM446.6 65.1s1.6-40.2 11.4-55.9l-76.5 14.2c9.8 7.6 12.7 20.3 12.8 37.2l.9 221c0 12.6 0 19.8-13.3 28h75s-9.5-8.6-9.5-28.8ZM963.1 309.6c-15.7-7.5-14-20.6-14.1-32.8V167c0-32-15.4-59.9-54-64.4-30.3-4-102.6 7.4-102.6 7.4v62.2c36.9-21.1 51.6-22.9 65.6-22.9 16.7-.1 32.5 9.2 32.5 20.8 0 16.2-23.9 13.6-44.9 16.4-30.2 4-70.2 20.7-70.2 62.5s24.3 66.1 61.3 66.1c43 0 59-19.1 59-19.1v13.6Zm-129.4-58.7c-.1-15.6 12.6-23.5 28-26.9a236 236 0 0 1 31.3-4.5c-1.7 68.5-59.2 60.9-59.3 31.4ZM1165.1 277.3l-.5-107c0-36.4-28-60.2-71-60.2-36.4 0-48.5 17.8-49.9 18.8V5.6l-70.2 14.2c9.9 16.2 9.4 24.1 9.5 34.9l.9 214c-.1 9.2 2.2 32-12 40.9h81c-11.1-12.1-11.1-27.7-11.1-39.4l-.4-81.1c0-15.3 8.8-33.2 30.2-33.2 29.7 0 34.9 20.2 34.9 32.9l.4 88.7c0 14-2.3 22.9-9.1 32.1h77.2c-10.5-8-9.9-25.9-9.9-32.3M760.2 169.2c0-29.3-24.5-55.2-57.8-55s-59.6 27.5-59.6 27.5-11.2-22-42.8-25.7a97.8 97.8 0 0 0-26.4.4 60 60 0 0 0-40.1 21.1v-23.7l-62.7 10.7c10.6 7.1 10.7 11.5 10.7 38.4l.5 121.4c0 8.6-2.3 20.6-9.1 25.3H546a35.9 35.9 0 0 1-9.5-27.9l-.1-97.9c0-10.9 13.1-19.6 28.6-19.7s29.2 7.2 29.2 22.1l.4 97.6c0 14.7.1 18.8-6.9 25.8h68.5c-7.6-7.5-8.4-13.7-8.4-24.9l-.2-99.8c0-12.3 15-21.2 28.9-21.2 16-.1 31.5 7 31.5 25.8l.4 92.7c0 10-1.1 18.7-9.2 27.4h69.4c-5.3-7.5-8.1-12.8-8.1-28.8l-.3-111.6ZM360.6 112.4s-59.4 11-64 11.3c7 9.3 8.2 11.6 8.2 27.9l.5 125.6c0 18-7.5 27.5-10.3 32.4h75.5c-9.5-9.4-9.9-17.2-9.9-36.1 0 0 .3-134.2 0-161.1ZM294.3 60l35.3-35.3L364.9 60l-35.3 35.3zM145 .7c-41.8-3.9-82.1 9.2-99.2 10.5-41.1 3.2-45.8 0-45.8 0 18.3 22.6 16.5 46.4 16.5 69.1v161.4c0 22.7 1.8 46.4-16.5 69.1 0 0 4.7-3.2 45.8 0 17.1 1.3 57.4 14.4 99.2 10.4s138.9-27 138.9-160.2S186.8 4.7 145 .7Zm-28.7 265.2c-13.5-.1-24.9-2.5-36-4.8V60.9c11.1-2.4 22.5-4.8 36-4.8 50.6-.2 96.8 24 96.8 104.9s-46.2 105.1-96.8 104.9Z"/>
</svg>