<?xml version="1.0" encoding="utf-8"?>
<svg xmlns="http://www.w3.org/2000/svg" viewBox="0 0 36.8 30.2">
  <path d="M33.4,1.8H15.1a1.6,1.6,0,0,0-1.2.4,2.1,2.1,0,0,0-.5,1.2V21.7a1.7,1.7,0,0,0,1.7,1.7H33.4a1.7,1.7,0,0,0,1.7-1.7V3.4a2.1,2.1,0,0,0-.5-1.2,1.6,1.6,0,0,0-1.2-.4ZM1.8,23.4H13.4V11.7H7.6L1.8,17.1Z" style="fill:none;stroke:#2b4b50;stroke-linejoin:round;stroke-width:3.5px"/>
  <path d="M13.4,25.1a2.9,2.9,0,0,1-1,2.3,2.9,2.9,0,0,1-2.3,1,3.4,3.4,0,0,1-3.4-3.3m25,0a3.2,3.2,0,0,1-.9,2.3,3.3,3.3,0,0,1-2.4,1,2.9,2.9,0,0,1-2.3-1,2.9,2.9,0,0,1-1-2.3" style="fill:none;stroke:#2b4b50;stroke-linecap:round;stroke-linejoin:round;stroke-width:3.5px"/>
</svg>