<svg xmlns="http://www.w3.org/2000/svg" viewBox="0 0 25.3 30.6"><path d="M2.1,24.7a9.8,9.8,0,0,1,1.8.8,33.5,33.5,0,0,0,5.3,1.9,16.6,16.6,0,0,0,2.2.3c.2,0,.5,0,.5-.2a.4.4,0,0,0-.4-.4l-1.1-.2-.5-.2a.2.2,0,0,1,0-.4c.2-.1.4,0,.6,0h2.2c.2.1.4-.1.4-.3s-.1-.3-.4-.4l-1.9-.2h-.5a.4.4,0,0,1-.1-.3h3.6c.2-.1.2-.2.1-.4a.7.7,0,0,0-.6-.2h-3c-.1,0-.3,0-.3-.2a.2.2,0,0,1,.2-.2h.4l2.3-.6h.4c.1-.1.2-.2.1-.3s-.1-.2-.2-.2a.8.8,0,0,0-.7,0l-2.6.5H9.3c-.3,0-.4-.2-.2-.4l.6-.7c.1,0,.2,0,.2-.1s.3-.3.2-.5-.4-.2-.6-.2l-.3.2L7,22.8a2.6,2.6,0,0,1-1.9.3,4.8,4.8,0,0,1-2.6-1.4L.4,19.5a.5.5,0,0,1-.2-.4c0-.6-.1-1.2-.1-1.8S0,16.4,0,15.9s0-.6.5-.7l3.2-.5,3.6-.2h9.1l2.9-.2c.4-.1.4,0,.5.3a5,5,0,0,1,.2,1.2.3.3,0,0,0,.3.3,13.4,13.4,0,0,1,2,.1,2.5,2.5,0,0,1,2.2,1.1,4,4,0,0,1,.7,3v.3a2.6,2.6,0,0,1-1.1,2,6.9,6.9,0,0,1-3,1.4h-1c-.3,0-.4.2-.5.5a3.7,3.7,0,0,1-1.9,2.5l-1.9,1-.4.3,1.3.3.8.2a.9.9,0,0,1,.6.6,1,1,0,0,1-.6.7l-.8.2-2.9.4H8.2A18.6,18.6,0,0,1,4.8,30c-.4-.2-.5-.3-.5-.7a.8.8,0,0,1,.6-.7L6,28.4c0-.2-.1-.2-.2-.3a9.3,9.3,0,0,1-3.1-2.5l-.3-.4c-.1-.1-.3-.3-.2-.5Zm17.8-2.2a3.8,3.8,0,0,0,3.2-1.2,1.5,1.5,0,0,0,.4-.9V19.1A2,2,0,0,0,22,17.3l-1.6-.2a.3.3,0,0,0-.3.3v1c0,.2-.1.3-.3.4a4.9,4.9,0,0,1-1.7-.1,2.3,2.3,0,0,1-1.7-1l-1.6-2v-.3h-.6c-.2.2-.1.3,0,.5a3,3,0,0,0,.4.8c0,.1.1.2.1.4s-.1.3-.3.2l-1-.5-1.8-1.2c-.3-.1-.5-.3-.8-.2h-.3c0,.2,0,.3.1.3l.5.4,1.9,1.3.3.2v.2c0,.1-.1.2-.2.1h-.5L10.4,17l-.7-.2c-.2,0-.4.1-.4.3s.1.2.2.3l.6.3,2.2.9c.1,0,.4.1.4.3s-.4.2-.6.1H12l-1.6-.4c-.2,0-.4-.1-.5,0a.3.3,0,0,0-.3.3c-.1.1.1.2.2.2l.4.2,2,.7c.2,0,.6,0,.5.3s-.4.2-.6.2l-1.4-.2c-.2-.1-.3,0-.4.2s.1.3.3.4l2.4.5a17.4,17.4,0,0,0,3.2.1h1.6l1.6-.2c.5,0,.5,0,.5.5v.7Z" style="fill:#e3dfde"/><path d="M9.2,13.4c-.1-.8-.7-1.1-1.4-1.3a10.6,10.6,0,0,1-2.5-.9A4,4,0,0,1,3,8.3,3.7,3.7,0,0,1,4.6,3.9,3.2,3.2,0,0,1,9.3,5.5c0,.1.1.3-.1.4a3,3,0,0,0-.8-.8,2.5,2.5,0,0,0-2.2-.4A2.1,2.1,0,0,0,4.7,6.6,3,3,0,0,0,6.1,9.5a14.8,14.8,0,0,0,2.1,1.3,2.5,2.5,0,0,1,1.2,1.3,1.1,1.1,0,0,1-.2,1.3Z" style="fill:#e3dfde"/><path d="M10.7,12.3a.5.5,0,0,1-.4-.5,1.7,1.7,0,0,1,.1-1.2,8.6,8.6,0,0,1,1-1.6l2.1-2A3.9,3.9,0,0,0,14,2.8,3.4,3.4,0,0,0,10.9.9a1.8,1.8,0,0,0-1.7.9A.2.2,0,0,1,9,2,1.8,1.8,0,0,1,10.3.3a3.9,3.9,0,0,1,3.6.4,4.3,4.3,0,0,1,2,4.9,4.9,4.9,0,0,1-2.1,3.2,13.3,13.3,0,0,1-1.9,1.4l-.8.8a1.3,1.3,0,0,0-.4,1.3Z" style="fill:#e3dfde"/><path d="M2.7,26.8H2.6c0-.1,0,0,.1,0Z" style="fill:#e3dfde"/></svg>