<svg xmlns="http://www.w3.org/2000/svg" viewBox="0 0 35.6 34.8"><path d="m31.5 13.7-2.2-1 2.2-1 1-2.2.9 2.2 2.2 1-2.2 1-.9 2.1Zm-5.3-7.4L23 4.8l3.2-1.6L27.7 0l1.5 3.2 3.3 1.6-3.3 1.5-1.5 3.2ZM11.9 34.8a3.3 3.3 0 0 1-2.3-.9 3.1 3.1 0 0 1-.9-2.2H15a3.1 3.1 0 0 1-3.1 3.1Zm-4.8-4.7a1.6 1.6 0 0 1 0-3.2h9.5a1.8 1.8 0 0 1 1.2.5 1.7 1.7 0 0 1 0 2.2 1.8 1.8 0 0 1-1.2.5Zm-1.2-4.8A11.8 11.8 0 0 1 1.6 21 11.2 11.2 0 0 1 0 15a11.5 11.5 0 0 1 3.5-8.4 11.4 11.4 0 0 1 8.4-3.4 11.4 11.4 0 0 1 8.4 3.4 11.5 11.5 0 0 1 3.5 8.4 11.3 11.3 0 0 1-1.7 6 11.1 11.1 0 0 1-4.3 4.3Z" fill="#4e878a"/></svg>