<svg xmlns="http://www.w3.org/2000/svg" viewBox="0 0 25 30"><path d="M11.5,5V2.6a.5.5,0,0,1,.5-.4.4.4,0,0,1,.4.4V5ZM9.4,5H8.5L7.7,2.8a.4.4,0,0,1,.4-.6c.2,0,.3.1.4.3Zm5.2,0h.9l.8-2.2a.4.4,0,0,0-.4-.6.5.5,0,0,0-.5.3ZM8.5,7.8H8.3a.1.1,0,0,0-.1-.1V7.4h.1a2.7,2.7,0,0,1,1.9-.5c.1,0,.1,0,.1.1h.2a.1.1,0,0,1-.1.1h-.1a.1.1,0,0,1-.1.1,1.9,1.9,0,0,0-1.5.3Zm7,0h-.2a2,2,0,0,0-1.5-.3h-.1a.1.1,0,0,0-.1-.1h.1a2.5,2.5,0,0,1,1.9.5.1.1,0,0,1,.1.1c.1.1.1.1,0,.2a.1.1,0,0,1-.1.1Zm-6,.4A1.4,1.4,0,0,0,8.2,9.3c-.1.1.1.3.2.3h.5a.3.3,0,0,1,0-.4V8.8a.5.5,0,0,1,.4-.2h.8l.3.2.2.4a.6.6,0,0,1-.1.4h.1c.2,0,.3-.1.2-.3A1.4,1.4,0,0,0,9.5,8.2Zm4.9,0a1.5,1.5,0,0,1,1.4,1.1.3.3,0,0,1-.3.3h-.4V9.2l-.2-.4-.3-.2h-.8l-.3.2-.2.4v.4H13A1.5,1.5,0,0,1,14.4,8.2Z" style="fill:#2b4b50"/><path d="M9.8,8.9H10l.2.2a.4.4,0,0,1,.1.3v.2H9.3V9.1h.5Zm4.4,0h-.4a.4.4,0,0,0-.1.3v.2h.9V9.1l-.2-.2ZM12,12.7a3.3,3.3,0,0,1-1.5-.4c-.1-.1-.3.1-.2.2a2.1,2.1,0,0,0,1.7,1,2.1,2.1,0,0,0,1.7-1c.1-.1-.1-.3-.2-.2A4.2,4.2,0,0,1,12,12.7ZM11.1,11l.6-1.7a.4.4,0,0,1,.7,0L13,11a.6.6,0,0,1-.6.7h-.7A.6.6,0,0,1,11.1,11Z" style="fill:#2b4b50"/><path d="M6.6,0A2.9,2.9,0,0,0,4.5,4.9l.5.5V6a1.6,1.6,0,0,0,.3.9h0v.6l-.6.9a3.6,3.6,0,0,0-.2,1.1,2.7,2.7,0,0,0,.6,1.7v.6A3.6,3.6,0,0,0,6,14.1l.3.7-.9.6-1,.8h0a12,12,0,0,0-3.3,4.1A13.1,13.1,0,0,0,0,25.5V29a.9.9,0,0,0,.3.7A.9.9,0,0,0,1,30H23a1.9,1.9,0,0,0,1.3-.5,1.7,1.7,0,0,0,.7-1.4v-5a2.1,2.1,0,0,0-1.8-2V20h0a2.6,2.6,0,0,0,1-1.3,4.5,4.5,0,0,0,.5-1.9,4.6,4.6,0,0,0-.5-2,2.4,2.4,0,0,0-1.1-1.3,2.4,2.4,0,0,0-1.6-.5,2.2,2.2,0,0,0-1.6.5,3,3,0,0,0-1.2,1.3,1.4,1.4,0,0,1-.2.6h-.1l-.7-.4a5.4,5.4,0,0,0,.5-1.1,3.5,3.5,0,0,0,.6-1.9v-.5a2.7,2.7,0,0,0-.1-3.7V6.6A1.4,1.4,0,0,0,19,6V5.4l.4-.5a2.8,2.8,0,0,0-2-4.9ZM18,3.5l-.7.7a.5.5,0,0,0-.2.4c-.1.1-.1.2-.1.4v.5H7V5a.9.9,0,0,0-.3-.7l-.8-.8A.9.9,0,0,1,6.6,2H17.4A.9.9,0,0,1,18,3.5Zm-6.9,12a3.1,3.1,0,0,1-1.9-.6,3.7,3.7,0,0,1-1.3-1.5v-.2H7.8a1.3,1.3,0,0,1-.1-.6L7.4,8.2V6.9h0V6.5h9.5v.2h0l-.4,5.8a3.3,3.3,0,0,1-1.1,2.1,3.5,3.5,0,0,1-2.3.9ZM6.2,17.3a10.6,10.6,0,0,0-3.1,3.6A10.4,10.4,0,0,0,2,25.5V28H18.5a.8.8,0,0,1,.2-.5,1.9,1.9,0,0,1-.2-.7,1.9,1.9,0,0,1,.2-.7,1.4,1.4,0,0,1-.2-.7,1.4,1.4,0,0,1,.2-.6,2.4,2.4,0,0,1-.2-.8,1.2,1.2,0,0,1,1.1-1.2c.1,0,.1-.1.2,0h.5V19.9a.3.3,0,0,1-.1-.2l-.2-.2h0a3.9,3.9,0,0,1-.8-1c0-.1-.1-.1-.1-.2l-.4-.2-.9-.8H13.5a3.9,3.9,0,0,1,.8,1,2.1,2.1,0,0,1,.3,1.2v1.6a2.6,2.6,0,0,1-1.9-.7,3.2,3.2,0,0,1-.7-1.9,2.7,2.7,0,0,1-.8,1.9,2.4,2.4,0,0,1-1.8.7V19.5a2.7,2.7,0,0,1,1.1-2.2ZM23,24.6v-.8H19.8a.3.3,0,0,0-.3.3h0v.2h.2V25l-.2.2h-.1a.4.4,0,0,0,.1.3l.2.2v.4l-.2.2c0,.1,0,.1-.1.1v.2c0,.1.1.2.1.3h.2v.5c0,.1-.1.1-.2.2a.1.1,0,0,1-.1.1H23Zm-1.5-9.5a1,1,0,0,0-.9.6,2,2,0,0,0-.2,1,1.6,1.6,0,0,0,.2,1,1,1,0,0,0,1.8,0,2.3,2.3,0,0,0,0-2l-.4-.4Z" style="fill:#2b4b50;fill-rule:evenodd"/></svg>