<svg xmlns="http://www.w3.org/2000/svg" viewBox="0 0 105.5 106"><path d="M82.5,67.5l.6-3a3.8,3.8,0,0,0-3.8-4.3H6.9a3.8,3.8,0,0,0-3.8,4.4c2.3,13.8,10.1,35.5,38,38.2,15,1.4,25.1-4.9,31.7-13.5m9.7-21.8c3.5-6.2,13.9-7.2,17.9-4.3s1.6,10.9-2,16.5S85.9,89.5,80.5,91.3c-17.8,5.9-7-1.3-7.7-2m9.7-21.8a54.8,54.8,0,0,1-9.7,21.8" style="fill:none;stroke:#e3dfde;stroke-linecap:round;stroke-width:6px"/><path d="M31.1,48.1s-8.8-8.5-8.2-14.9,16.1-7,16.2-14.9S22.9,3,22.9,3M47.1,45.5s8.1-2.2,9.3-5.9-8.2-5.4-9.3-10.3c-1.9-8.1,14.8-17.2,14.8-17.2" style="fill:none;stroke:#e3dfde;stroke-linecap:round;stroke-width:6px"/></svg>