<svg id="Layer_1" data-name="Layer 1" xmlns="http://www.w3.org/2000/svg" viewBox="0 0 55.6 57"><defs><style>.cls-1{fill:none;stroke:#4e878a;stroke-linecap:round;stroke-width:3px}</style></defs><path class="cls-1" d="M43.6 36.4a35.5 35.5 0 0 0 .6-4H1.7c.7 7 3.9 21.4 20.2 23a17.6 17.6 0 0 0 16.7-7.2m5-11.8c1.9-3.4 7.3-3.9 9.4-2.4s.8 5.9-1.1 9-6.5 5.3-9.3 6.2c-9.4 3.2-3.7-.7-4-1m5-11.8a31.6 31.6 0 0 1-5 11.8M16.7 25.9s-4.6-4.6-4.3-8.1 8.4-3.8 8.5-8-8.5-8.3-8.5-8.3m12.7 23s4.2-1.2 4.8-3.2-4.3-2.9-4.8-5.6c-1-4.4 7.7-9.3 7.7-9.3"/></svg>