<svg xmlns="http://www.w3.org/2000/svg" viewBox="0 0 50.7 46"><path d="M4.4,24.6h0a2.9,2.9,0,0,1,2.9,2.9V39a2.9,2.9,0,0,1-2.9,2.9h0A2.9,2.9,0,0,1,1.5,39V27.5A2.9,2.9,0,0,1,4.4,24.6Z" style="fill:none;stroke:#2b4b50;stroke-linecap:round;stroke-linejoin:round;stroke-width:3px"/><path d="M7.2,27.8H19.8l10.4,3s2.5.9,2,3.3a2.7,2.7,0,0,1-3.1,2l-8.7-2.5M7.2,38.9h4.5l12.4,4.7a11.6,11.6,0,0,0,3.5.9,7.4,7.4,0,0,0,3-.9L47.5,32.3S50,30.9,49,28.8s-3.7-1-3.7-1l-9.5,3" style="fill:none;stroke:#2b4b50;stroke-linecap:round;stroke-linejoin:round;stroke-width:3px"/><path d="M23.1,1.5a5.1,5.1,0,0,0-5.2,5.1c0,2.3.9,7.6,9.9,13.1h1c9-5.5,9.9-10.8,9.9-13.1a5.1,5.1,0,0,0-5.2-5.1c-2.9,0-5.2,3.1-5.2,3.1S26,1.5,23.1,1.5Z" style="fill:none;stroke:#2b4b50;stroke-linecap:round;stroke-linejoin:round;stroke-width:3px"/></svg>