<svg xmlns="http://www.w3.org/2000/svg" viewBox="0 0 13.5 22.5"><path d="M1.7.8A.9.9,0,0,0,1.4.2.8.8,0,0,0,.8,0L.2.2A1.4,1.4,0,0,0,0,.8V4.2A1.9,1.9,0,0,0,.5,5.5a2.1,2.1,0,0,0,1.2.7L.6,9a5.7,5.7,0,0,0-.3,1.8,4.7,4.7,0,0,0,.4,1.7l4.5,9a1.8,1.8,0,0,0,1.6,1,1.8,1.8,0,0,0,1.5-1l4.5-9A4.3,4.3,0,0,0,12.9,9L11.8,6.2A2.1,2.1,0,0,0,13,5.5a1.9,1.9,0,0,0,.5-1.3V.8a1.4,1.4,0,0,0-.2-.6L12.7,0l-.6.2a.9.9,0,0,0-.3.6V4.2c0,.1,0,.2-.1.2H1.8c-.1,0-.1-.1-.1-.2ZM9.9,6.2l1.4,3.4a2.8,2.8,0,0,1,0,2.2L7.6,19.1V11.6a1.8,1.8,0,0,0,.7-.8,1.4,1.4,0,0,0,.1-1.1,1.5,1.5,0,0,0-.6-.9,2.1,2.1,0,0,0-1-.4,2.1,2.1,0,0,0-1.1.4,1.5,1.5,0,0,0-.6.9,1.4,1.4,0,0,0,.1,1.1,1.8,1.8,0,0,0,.7.8v7.5L2.2,11.8A4.3,4.3,0,0,1,2,10.7a2.2,2.2,0,0,1,.2-1.1L3.6,6.2Z" style="fill:#2B4B50"/></svg>