<svg xmlns="http://www.w3.org/2000/svg" viewBox="0 0 44.6 34.2"><path d="M4,31.2c-2.6-2.7-4-5.8-4-10.7C0,11.7,6.1,3.9,15.1,0l2.2,3.4C9,8,7.3,13.8,6.7,17.5a9.4,9.4,0,0,1,4.8-.8,8.8,8.8,0,0,1,8.1,8.7A8.4,8.4,0,0,1,17,31.6a8.5,8.5,0,0,1-6.2,2.6,9.5,9.5,0,0,1-3.7-.8A7.7,7.7,0,0,1,4,31.2Zm25,0c-2.6-2.7-4-5.8-4-10.7C25,11.7,31.1,3.9,40.1,0l2.2,3.4C34,8,32.3,13.8,31.7,17.5a9.4,9.4,0,0,1,4.8-.8,8.8,8.8,0,0,1,8.1,8.7A8.4,8.4,0,0,1,42,31.6a8.5,8.5,0,0,1-6.2,2.6,9.5,9.5,0,0,1-3.7-.8A7.7,7.7,0,0,1,29,31.2Z" style="fill:#e3dfde"/></svg>