<svg xmlns="http://www.w3.org/2000/svg" viewBox="0 0 52.2 42.4"><path d="M52.2,5A18.4,18.4,0,0,1,46,6.7,10.2,10.2,0,0,0,50.7.8a23.4,23.4,0,0,1-6.8,2.6,10.9,10.9,0,0,0-6-3.3,11.2,11.2,0,0,0-6.8,1.2,9.9,9.9,0,0,0-4.7,5,10.9,10.9,0,0,0-.7,6.9A32.1,32.1,0,0,1,13.5,9.9,30.4,30.4,0,0,1,3.6,2,10.9,10.9,0,0,0,2.2,7.4a11.1,11.1,0,0,0,1.2,5,12,12,0,0,0,3.5,3.9,11.6,11.6,0,0,1-4.8-1.4v.2a11,11,0,0,0,2.4,6.7,10.7,10.7,0,0,0,6.2,3.8,11.1,11.1,0,0,1-4.8.1,10.4,10.4,0,0,0,3.8,5.4,11.3,11.3,0,0,0,6.2,2.1A22.1,22.1,0,0,1,2.6,37.8L0,37.6a29.9,29.9,0,0,0,16.4,4.8c19.7,0,30.5-16.3,30.5-30.4a6.1,6.1,0,0,0-.1-1.4A22.2,22.2,0,0,0,52.2,5Z" style="fill:#78b2b5"/></svg>