<svg xmlns="http://www.w3.org/2000/svg" viewBox="0 0 55.2 38.4"><path d="M2.9,38.4H52.3a3.1,3.1,0,0,0,2.9-3V3a3.1,3.1,0,0,0-3-3H3A3.1,3.1,0,0,0,0,3V35.4a3.1,3.1,0,0,0,2.9,3Z" style="fill:#fefefe"/><polygon points="23.7 23 23.7 38.4 31.4 38.4 31.4 23 55.2 23 55.2 15.3 31.4 15.3 31.4 0 23.7 0 23.7 15.3 0 15.3 0 23 23.7 23" style="fill:#c8102e"/><path d="M34,12.4V0H52.2A3.1,3.1,0,0,1,55,1.9L34,12.4Z" style="fill:#012169"/><path d="M34,26V38.4H52.3A3.1,3.1,0,0,0,55,36.5L34,26Z" style="fill:#012169"/><path d="M21.2,26V38.4H2.9A3.1,3.1,0,0,1,.2,36.5L21.2,26Z" style="fill:#012169"/><path d="M21.2,12.4V0H3A3,3,0,0,0,.2,1.9l21,10.5Z" style="fill:#012169"/><polygon points="0 12.8 7.7 12.8 0 9 0 12.8" style="fill:#012169"/><polygon points="55.2 12.8 47.5 12.8 55.2 8.9 55.2 12.8" style="fill:#012169"/><polygon points="55.2 25.6 47.5 25.6 55.2 29.4 55.2 25.6" style="fill:#012169"/><polygon points="0 25.6 7.7 25.6 0 29.4 0 25.6" style="fill:#012169"/><polygon points="55.2 3.3 36.1 12.8 40.4 12.8 55.2 5.4 55.2 3.3" style="fill:#c8102e"/><polygon points="19 25.6 14.8 25.6 0 33 0 35.1 19.1 25.6 19 25.6" style="fill:#c8102e"/><polygon points="10.5 12.8 14.8 12.8 0 5.4 0 7.5 10.5 12.8" style="fill:#c8102e"/><polygon points="44.6 25.6 40.4 25.6 55.2 33 55.2 30.9 44.6 25.6" style="fill:#c8102e"/></svg>