<svg version="1.1" id="Layer_1" xmlns="http://www.w3.org/2000/svg" x="0" y="0" viewBox="0 0 1196.1 792" xml:space="preserve"><style type="text/css">.st0{fill:#4e878a}</style><path class="st0" d="M509 335.4s1-25.4 7.2-35.3l-48.3 9c6.2 4.8 8.1 12.8 8.1 23.5l.6 139.7c0 8 0 12.5-8.4 17.7h47.4s-6-5.4-6-18.2l-.6-136.4zM835.3 489.9c-9.9-4.7-8.8-13-8.9-20.7v-69.4c0-20.2-9.8-37.8-34.2-40.7-19.2-2.5-64.8 4.7-64.8 4.7v39.3c23.3-13.3 32.6-14.4 41.4-14.5 10.5 0 20.6 5.8 20.6 13.1 0 10.2-15.1 8.6-28.4 10.4-19.1 2.5-44.4 13.1-44.4 39.5s15.4 41.7 38.8 41.7c27.1 0 37.2-12 37.2-12v8.6h42.7zm-81.7-37.1c-.1-9.8 8-14.8 17.7-17 9.7-2.2 19.8-2.8 19.8-2.8-1.1 43.2-37.4 38.5-37.5 19.8zM963 469.5l-.3-67.6c0-23-17.7-38-44.9-38-23 0-30.7 11.3-31.5 11.9v-77.9l-44.3 9c6.2 10.3 5.9 15.2 6 22.1l.6 135.2c0 5.8 1.4 20.3-7.6 25.9h51.2c-7.1-7.7-7.1-17.5-7-24.9l-.3-51.2c0-9.6 5.6-21 19-21 18.8 0 22.1 12.8 22.1 20.8l.3 56c0 8.8-1.5 14.4-5.8 20.3h48.8c-6.7-5.3-6.3-16.6-6.3-20.6M707.1 401.2c0-18.5-15.5-34.8-36.5-34.7-21.3 0-37.7 17.3-37.7 17.3s-7.1-13.9-27.1-16.2c-6-.7-10.1-.6-16.7.3-17.4 2.2-25.3 13.3-25.3 13.3v-14.9l-39.6 6.8c6.7 4.5 6.7 7.3 6.7 24.2l.3 76.7c0 5.4-1.5 13.1-5.8 16h46.2c-5.2-6.6-6-9.9-6-17.6 0-1.2-.1-61.9-.1-61.9 0-6.9 8.3-12.4 18.1-12.4 10.2-.1 18.4 4.6 18.4 13.9 0 6.1.2 52.4.2 61.7 0 8.5 0 11.8-4.4 16.3h43.3c-4.8-4.7-5.3-8.7-5.3-15.7 0 0-.1-53.6-.1-63.1 0-7.8 9.5-13.4 18.3-13.4 10.1-.1 19.9 4.4 19.9 16.3 0 2.8.3 58.6.3 58.6 0 6.3-.7 11.8-5.8 17.3h43.8c-3.3-4.8-5.1-8.1-5.1-18.2.2-.1 0-52.2 0-70.6zM454.7 365.3s-37.5 7-40.5 7.1c4.4 5.9 5.2 7.3 5.2 17.6l.3 79.4c0 11.4-4.8 17.4-6.5 20.5h47.7c-6-6-6.2-10.9-6.2-22.9 0 .1.2-84.7 0-101.7z"/><path transform="rotate(45.001 435.073 332.168)" class="st0" d="M419.3 316.4h31.5v31.5h-31.5z"/><path class="st0" d="M318.4 294.8c-26.4-2.5-51.9 5.8-62.7 6.6-26 2-28.9 0-28.9 0 11.5 14.3 10.4 29.3 10.4 43.6v102c0 14.3 1.1 29.3-10.4 43.6 0 0 3-2 28.9 0 10.8.8 36.2 9.1 62.7 6.6 26.4-2.5 87.7-17.1 87.7-101.2s-61.2-98.8-87.7-101.2zm-18.1 167.5c-8.5 0-15.7-1.5-22.7-3V332.8c7-1.5 14.2-3 22.7-3 32-.1 61.2 15.2 61.2 66.3s-29.2 66.3-61.2 66.2z"/></svg>