<svg xmlns="http://www.w3.org/2000/svg" viewBox="0 0 55.5 57.1"><defs><style>.a{fill:none;stroke:#e3dfde;stroke-linecap:round;stroke-width:3px;}</style></defs><path class="a" d="M43.6,36.4a27.6,27.6,0,0,0,.6-4H1.7c.7,7,3.9,21.4,20.2,23a17.6,17.6,0,0,0,16.7-7.2m5-11.8C45.5,33,50.9,32.5,53,34s.8,5.9-1.1,9-6.5,5.3-9.3,6.2c-9.4,3.2-3.7-.7-4-1m5-11.8a30.8,30.8,0,0,1-5,11.8" transform="translate(0 0)"/><path class="a" d="M16.7,25.9s-4.6-4.6-4.3-8.1,8.4-3.8,8.5-8-8.5-8.3-8.5-8.3m12.7,23s4.2-1.2,4.8-3.2-4.3-2.9-4.8-5.6c-1-4.4,7.7-9.3,7.7-9.3" transform="translate(0 0)"/></svg>