<svg version="1" xmlns="http://www.w3.org/2000/svg" width="266.667" height="306.667" viewBox="0 0 200 230" preserveAspectRatio="xMidYMid meet"><path d="M70 7.1c-3.6.5-12.6 2.1-20 3.6-11.2 2.2-16.4 2.7-30.2 2.7l-16.7.1 2 3c3.3 4.8 6.6 12.6 7.8 18.3 1.6 7.4 1.6 153 0 160.4-1.2 5.7-4.5 13.5-7.8 18.3l-2 3 16.7.1c14.5.1 18.9.5 33.2 3.3 21.1 4.1 43.5 5.2 57.6 2.7 25.5-4.4 44.2-14 59.5-30.5 11.8-12.6 19.6-28.8 23.6-48.8 2.5-12.6 2.5-44.5 0-56.3-9.5-45.2-36.9-71.7-82.1-79.5-9.7-1.6-30.9-1.8-41.6-.4zM102.4 47c25.1 6.4 39.6 23.3 43.6 50.9 1.6 10.8.8 34.4-1.5 43.1-7.7 29.1-28.8 44.2-61.8 44-6.1 0-14.1-.6-17.7-1.3l-6.5-1.2-.3-67.2-.2-67.2 3.7-1c10.4-2.7 30.4-2.8 40.7-.1z" fill="#000" stroke="none"/></svg>