<svg xmlns="http://www.w3.org/2000/svg" fill="none" width="42" height="42"><g filter="url(#a)" transform="translate(-8 -5)"><circle cx="29" cy="26" fill="#fb5758" r="21"/><path fill-rule="evenodd" d="M29 13a13 13 0 1 0 0 26 13 13 0 0 0 0-26zm4.4 10.3a1.2 1.2 0 0 0-1.7-1.7L29 24.3l-2.7-2.7a1.2 1.2 0 1 0-1.7 1.7l2.7 2.7-2.7 2.7a1.2 1.2 0 1 0 1.7 1.7l2.7-2.7 2.7 2.7a1.2 1.2 0 0 0 1.7-1.7L30.7 26Z" fill="#f5f3f2"/></g><defs><filter id="a" x="0" y="0" width="60" height="60" filterUnits="userSpaceOnUse" color-interpolation-filters="sRGB"><feFlood flood-opacity="0" result="A"/><feColorMatrix in="SourceAlpha" values="0 0 0 0 0 0 0 0 0 0 0 0 0 0 0 0 0 0 127 0" result="B"/><feOffset dx="1" dy="4"/><feGaussianBlur stdDeviation="4.5"/><feComposite in2="B" operator="out"/><feColorMatrix values="0 0 0 0 0.258333 0 0 0 0 0.258333 0 0 0 0 0.258333 0 0 0 0.24 0"/><feBlend in2="A"/><feBlend in="SourceGraphic"/></filter></defs></svg>